<?xml version="1.0" encoding="UTF-8" standalone="no"?>
<svg width="626px" height="282px" viewBox="0 0 626 282" version="1.1" xmlns="http://www.w3.org/2000/svg" xmlns:xlink="http://www.w3.org/1999/xlink">
    <defs></defs>
    <g id="Page-1" stroke="none" stroke-width="1" fill="none" fill-rule="evenodd">
        <g id="Artboard-1" transform="translate(-117.000000, -287.000000)" fill="#FEFEFE">
            <g id="cadibode_logo" transform="translate(117.000000, 287.000000)">
                <path d="M516.502,153.063 L490.167,153.063 L490.167,247.221 L516.502,247.221 L516.502,153.063 Z M312.824,22.576 C314.524,45.585 316.181,67.998 317.837,90.412 C317.295,90.475 316.754,90.539 316.211,90.603 C316.04,89.239 315.868,87.876 315.632,85.995 C313.511,94.285 315.741,97.202 323.002,97.722 C330.987,98.293 338.917,99.623 346.883,100.52 C350.545,100.932 354.234,101.099 357.712,101.362 C358.398,74.884 359.074,48.842 359.756,22.576 L312.824,22.576 Z M417.582,256.285 C427.174,257.252 436.072,257.747 444.81,259.204 C448.983,259.9 449.92,258.329 450.066,255.092 C451.035,233.725 452.518,212.359 452.744,190.981 C453.251,143.165 453.124,95.342 453.232,47.522 C453.235,46.265 452.973,45.006 452.828,43.706 L418.861,43.706 C418.861,53.861 418.958,63.667 418.842,73.47 C418.615,92.472 420.403,111.581 415.953,130.369 C416.496,168.94 417.043,207.511 417.576,246.082 C417.622,249.38 417.582,252.679 417.582,256.285 L417.582,256.285 Z M382.488,122.57 C374.189,120.449 366.216,117.741 358.02,116.479 C346.312,114.675 334.434,113.99 322.644,112.699 C318.961,112.295 316.968,113.188 317.061,117.359 C317.24,125.352 317.18,133.35 317.156,141.346 C317.151,142.821 316.987,144.325 316.664,145.765 C315.858,149.358 314.047,152.959 314.191,156.493 C314.696,168.871 316.231,181.21 316.677,193.588 C317.297,210.881 317.252,228.197 317.59,245.501 C317.647,248.463 317.958,251.471 318.633,254.344 C318.89,255.437 320.452,256.945 321.504,257.016 C330.793,257.641 340.098,258.094 349.404,258.376 C356.637,258.596 363.88,258.459 371.117,258.562 C374.358,258.607 377.598,258.85 380.912,259.007 C381.442,213.134 381.963,168.035 382.488,122.57 L382.488,122.57 Z M401.989,281.481 L401.989,274.268 C400.253,275.652 398.945,276.695 397.638,277.739 C397.658,277.296 397.679,276.854 397.7,276.41 C392.208,276.108 386.72,275.633 381.225,275.538 C369.786,275.342 358.344,275.22 346.904,275.322 C340.968,275.375 335.016,275.76 329.109,276.376 C322.026,277.115 314.986,278.26 307.928,279.234 C304.697,279.681 304.046,277.508 302.801,275.08 C294.793,259.46 298.697,242.768 298.473,226.566 C298.221,208.437 299.85,190.288 300.057,172.141 C300.557,128.253 300.896,84.361 300.848,40.471 C300.837,31 298.925,21.53 297.864,11.84 C298.825,11.75 300.615,11.581 302.759,11.378 C302.881,10.17 302.979,8.893 303.144,7.624 C303.783,2.709 306.082,1.604 310.641,3.667 C312.198,4.372 314.086,4.599 315.825,4.606 C331.487,4.677 347.149,4.649 362.812,4.655 C364.144,4.655 365.48,4.627 366.808,4.723 C371.916,5.088 373.589,7.308 374.269,12.938 C377.722,41.541 375.159,70.191 375.803,98.801 C375.902,103.212 377.245,104.712 381.414,104.684 C385.032,104.659 388.657,105.037 392.271,105.328 C395.437,105.583 396.956,107.254 396.866,110.563 C396.48,124.653 395.784,138.752 396.03,152.833 C396.161,160.326 397.985,167.789 399.045,175.266 C399.299,177.056 399.776,178.846 399.772,180.636 C399.733,203.295 399.656,225.954 399.498,248.612 C399.477,251.543 398.944,254.469 397.65,257.499 C397.342,256.45 397.032,255.4 396.473,253.496 C395.716,264.607 396.492,266.688 402.084,268.025 C401.743,265.121 401.095,262.452 401.173,259.803 C401.743,240.427 402.651,221.06 403.082,201.681 C403.644,176.483 403.775,151.276 404.333,126.079 C404.409,122.595 405.846,119.137 406.686,115.675 C407.031,114.248 407.788,112.846 407.809,111.424 C408.097,91.503 408.288,71.581 408.505,51.659 C408.592,43.727 408.637,35.794 408.798,27.863 C408.866,24.505 414.096,20.875 417.392,21.587 C422.467,22.685 427.536,24.138 432.679,24.532 C442.084,25.252 451.539,25.309 460.975,25.641 C461.973,25.676 462.986,25.596 463.966,25.745 C468.177,26.387 470.274,28.072 470.021,33.136 C469.472,44.105 469.961,55.123 469.826,66.118 C469.58,86.228 469.182,106.336 468.871,126.446 C468.847,128.067 469.008,129.69 469.044,130.459 C483.443,130.96 497.418,131.445 511.918,131.949 C511.998,130.817 512.27,128.879 512.252,126.943 C511.994,99.14 511.641,71.338 511.453,43.535 C511.41,37.251 511.597,30.928 512.307,24.694 C512.625,21.891 514.461,19.252 515.664,16.563 C516.384,14.954 517.229,13.401 517.982,11.807 C518.809,10.062 519.595,8.299 520.398,6.543 C522.541,7.748 524.773,8.824 526.774,10.23 C527.415,10.682 527.734,12.014 527.707,12.928 C527.279,27.053 526.636,41.172 526.323,55.299 C526.1,65.445 526.344,75.602 526.29,85.753 C526.22,99.079 525.759,112.412 526.014,125.731 C526.375,144.64 527.18,163.541 527.979,182.438 C528.051,184.119 529.562,185.708 530.245,187.405 C530.881,188.985 531.737,190.647 531.752,192.28 C531.903,209.273 531.935,226.268 531.937,243.262 C531.94,257.158 530.275,256.619 517.638,261.854 C506,266.677 494.772,264.411 483.384,265.191 C475.781,265.712 474.365,263.648 474.077,256.008 C473.541,241.789 472.787,227.578 472.091,213.365 C471.809,207.596 470.136,201.532 471.373,196.122 C474.434,182.748 473.506,169.259 474.203,155.822 C474.461,150.862 474.245,145.877 474.245,140.973 C468.949,140.112 468.857,140.138 468.844,145.033 C468.743,179.188 468.703,213.345 468.557,247.5 C468.532,253.414 468.095,259.325 467.848,265.238 C467.382,265.227 466.915,265.215 466.449,265.204 C466.298,264 466.146,262.795 465.995,261.591 C465.842,261.581 465.687,261.572 465.535,261.563 C464.874,265.614 464.213,269.666 463.672,272.984 C454.295,279.281 444.493,275.216 434.925,275.309 C430.594,275.351 426.244,275.102 421.938,275.434 C420.451,275.548 419.104,277.092 417.626,277.85 C416.534,278.41 415.318,278.722 414.182,279.201 C412.439,279.936 410.719,280.719 408.988,281.481 L401.989,281.481 Z" id="Fill-2"></path>
                <path d="M123.2212,35.6587 L123.2212,120.3467 L169.3072,120.3467 C169.1072,91.9567 169.3912,63.8567 167.2442,35.6587 L123.2212,35.6587 Z M169.3112,137.6747 L122.9922,137.6747 L122.9922,143.1537 C122.9872,174.8137 122.9662,206.4727 122.9952,238.1317 C122.9992,242.8937 123.4322,247.5947 119.7272,251.5697 C118.6352,252.7407 118.7192,255.0077 117.9592,257.9517 C114.8402,257.0587 111.7122,255.4347 108.5862,255.4397 C104.0572,255.4477 99.5112,256.5307 95.0152,257.3807 C93.6882,257.6307 92.5062,259.2177 91.2572,259.2187 C68.0962,259.2347 44.9352,259.1797 21.7762,258.9497 C15.4772,258.8867 10.7782,254.8477 6.0942,251.2557 C5.2132,250.5807 5.1322,248.5497 5.1012,247.1347 C4.9822,241.6387 5.2722,236.1257 4.9742,230.6437 C4.0312,213.3257 2.8432,196.0197 1.8462,178.7037 C1.2062,167.5867 0.2772,156.4577 0.3242,145.3387 C0.3692,134.2977 1.5892,123.2667 2.0852,112.2217 C2.6012,100.7427 2.9292,89.2537 3.2262,77.7657 C3.6122,62.8277 3.9242,47.8877 4.1892,32.9477 C4.3002,26.6587 4.2072,20.3667 4.2072,14.0157 C11.0652,9.0657 18.2722,4.9477 27.3502,6.6547 C28.3102,6.8357 30.0622,6.7127 30.1492,7.0567 C31.6752,13.1207 36.5752,10.3977 39.8912,10.5107 C53.3742,10.9667 66.8732,10.9027 80.3662,11.0847 C81.6642,11.1017 82.9632,11.4687 84.2532,11.7137 C88.1352,12.4527 91.9862,13.4477 95.8992,13.9047 C101.0032,14.5007 101.1712,18.0367 101.3512,21.8727 C101.5672,26.4877 98.1992,25.2987 95.8042,25.2697 C92.7042,25.2317 89.5912,24.4557 86.5152,24.6157 C84.4322,24.7237 82.4212,26.4387 80.3482,26.5047 C66.3772,26.9497 52.3982,27.1517 38.4212,27.4157 C36.1232,27.4587 33.8242,27.4217 31.2142,27.4217 C31.0832,29.2307 30.8182,30.6817 30.8992,32.1137 C32.0242,51.9007 27.1622,71.3987 28.3112,91.2327 C29.2532,107.5007 29.0552,123.8317 29.5242,140.1307 C29.9002,153.2277 30.5482,166.3167 31.0222,179.4097 C31.6662,197.2087 32.3582,215.0077 32.7972,232.8127 C32.8952,236.7917 34.4012,238.0227 38.1692,237.7827 C49.1102,237.0857 60.0582,236.2487 71.0112,236.1257 C76.3712,236.0667 81.7492,237.4557 87.1162,238.2087 C89.3912,238.5297 91.6502,239.0857 93.9332,239.2037 C97.3462,239.3807 100.9372,238.4617 102.8732,242.8017 C103.2942,243.7457 106.0172,244.4157 107.2652,243.9917 C108.1932,243.6767 108.9672,241.3727 108.9262,239.9827 C108.4652,224.5567 107.7012,209.1397 107.2932,193.7127 C107.0372,184.0547 107.2472,174.3857 107.2482,164.7207 C107.2522,122.8997 107.2332,81.0787 107.3252,39.2577 C107.3292,37.0887 108.3072,34.9287 108.7822,32.7527 C109.5062,29.4287 110.2912,25.6717 106.5142,23.9617 C102.6332,22.2057 102.4752,19.7027 103.5342,16.0657 C120.2202,15.4547 136.6822,10.6487 153.7422,12.9967 C159.3812,13.7727 165.2912,13.0557 171.0272,12.4987 C174.8842,12.1247 176.2082,13.6807 175.9622,17.5587 C181.6822,16.5327 182.7972,20.1927 182.8882,24.2257 C183.0722,32.3997 182.8862,40.5797 182.8912,48.7587 C182.9132,83.4157 182.7202,118.0767 183.0542,152.7317 C183.3292,181.1377 184.6362,209.5397 184.5402,237.9407 C184.5202,243.7577 184.6832,250.6927 179.9732,255.9837 C178.8402,257.2557 178.7942,259.7207 178.7152,261.6567 C178.5692,265.1637 176.4722,266.2147 173.4972,266.4017 C170.0232,266.6187 169.9472,264.1367 169.8882,261.7147 C169.5092,246.2387 168.8792,230.7617 168.8362,215.2837 C168.7732,192.4797 169.1352,169.6757 169.3082,146.8707 C169.3302,143.9127 169.3112,140.9537 169.3112,137.6747 L169.3112,137.6747 Z" id="Fill-4"></path>
                <path d="M536.7744,264.6904 L536.7744,155.1624 C534.8164,154.7004 533.1234,154.3014 531.2944,153.8704 L531.2944,139.1334 C533.0744,138.7904 534.6544,138.4854 536.8994,138.0524 L536.8994,12.1214 C538.9114,11.7234 540.2954,11.4494 542.1274,11.0874 C542.1274,9.0864 541.4274,6.7834 542.2804,5.6024 C543.8004,3.4974 546.0444,1.1024 548.3754,0.5844 C551.8404,-0.1846 551.8524,3.0104 551.8624,5.6444 C551.8894,12.5694 551.9394,12.5134 558.7484,12.6784 C573.3574,13.0324 587.9634,13.4494 602.5724,13.8394 C602.9054,13.8484 603.2624,13.7644 603.5684,13.8564 C609.3734,15.6104 615.2614,17.1524 620.8994,19.3434 C622.0874,19.8054 622.6624,22.6214 622.8894,24.4324 C622.9954,25.2724 621.6754,27.0384 620.8574,27.1324 C613.0514,28.0334 605.2104,29.3034 597.3884,29.2334 C584.0034,29.1124 570.6254,28.0994 557.2444,27.4764 C555.9484,27.4164 554.6474,27.4684 553.0644,27.4684 L553.0644,131.3774 C563.8834,131.8004 574.4594,132.0634 585.0094,132.7064 C588.7594,132.9344 593.5644,131.5174 595.2254,137.0894 C595.3294,137.4384 596.3744,137.5444 596.9994,137.6914 C601.0714,138.6504 605.2374,139.3314 609.1834,140.6624 C610.7944,141.2054 613.2354,143.3974 613.0414,144.4044 C612.4744,147.3394 611.5294,150.8184 607.2974,150.7354 C605.4844,150.7004 603.6344,150.1474 601.8664,150.3624 C594.5954,151.2454 587.3754,152.6264 580.0874,153.2654 C572.3374,153.9464 564.5334,153.9944 556.7534,154.3234 C555.6184,154.3714 554.4834,154.4464 553.2364,154.5154 C554.0494,184.9084 554.8544,214.9874 555.6754,245.6944 C564.0214,245.6944 571.9884,245.4104 579.9264,245.7624 C590.8044,246.2474 601.7304,246.7214 612.4964,248.2114 C616.9324,248.8254 621.0064,252.0674 625.2464,254.1134 C625.1844,254.9114 625.1244,255.7104 625.0634,256.5074 C620.7704,257.4804 616.5084,258.6464 612.1754,259.3904 C600.7454,261.3544 589.2834,263.1394 577.8324,264.9894 C568.5204,266.4934 559.2244,268.1134 549.8824,269.3974 C547.5394,269.7194 545.0454,268.9534 542.6384,268.0034 C544.0314,267.8284 545.4244,267.6524 546.8184,267.4764 C546.8424,267.2614 546.8684,267.0464 546.8934,266.8334 C543.8634,266.1914 540.8334,265.5494 536.7744,264.6904" id="Fill-5"></path>
                <path d="M205.604,230.2129 C206.197,230.4019 206.79,230.5929 207.383,230.7829 C210.335,225.7339 213.38,220.7379 216.218,215.6259 C219.674,209.3999 222.424,202.7079 226.444,196.8829 C232.075,188.7249 238.536,181.1349 244.758,173.3949 C247.837,169.5659 250.903,165.6499 254.488,162.3269 C257.167,159.8449 257.573,157.7329 256.137,154.5369 C249.773,140.3779 243.636,126.1189 237.283,111.9549 C226.966,88.9489 216.589,65.9699 206.086,43.0489 C205.212,41.1409 203.191,39.7589 201.703,38.1329 C201.184,38.4069 200.665,38.6819 200.146,38.9569 C200.146,40.5409 200.061,42.1309 200.16,43.7099 C200.748,53.1349 201.391,62.5589 201.991,71.9839 C203.285,92.2829 205.295,112.5689 205.679,132.8859 C206.254,163.3599 205.686,193.8569 205.604,224.3429 C205.6,226.2989 205.604,228.2559 205.604,230.2129 M192.077,108.9939 C192.076,77.8589 192.044,46.7239 192.149,15.5899 C192.156,13.5729 192.625,10.9709 193.916,9.6759 C196.188,7.3999 198.95,8.2669 200.544,10.9769 C202.199,13.7899 203.449,16.8439 204.846,19.8069 C206.187,22.6509 206.632,26.5049 211.572,24.7709 C212.236,24.5379 213.993,26.2289 214.66,27.3699 C223.339,42.2339 232.545,56.8399 240.302,72.1769 C245.829,83.1059 249.417,95.0199 253.789,106.5259 C258.659,119.3409 260.989,133.0639 269.337,144.6329 C274.094,151.2259 270.606,166.5569 265.148,173.0249 C261.699,177.1119 259.46,182.2039 256.5,186.7279 C255.518,188.2289 254.049,189.4479 252.671,190.6429 C251.441,191.7069 249.697,192.3059 248.747,193.5459 C241.148,203.4589 233.545,213.3749 226.225,223.4929 C220.436,231.4939 215.379,240.0419 209.339,247.8359 C206.18,251.9109 201.817,255.1819 197.587,258.2499 C194.768,260.2949 191.837,257.9759 191.857,254.1919 C191.932,240.2139 192.055,226.2349 192.067,212.2569 C192.098,177.8369 192.077,143.4159 192.077,108.9939" id="Fill-6"></path>
                <path d="M295.9355,248.9961 C294.2095,249.2781 292.8235,249.5061 291.9045,249.6551 C291.0775,255.6081 290.6765,261.2451 289.3355,266.6491 C288.8655,268.5461 286.3345,270.4661 284.3025,271.2991 C282.0495,272.2221 280.2675,270.9871 280.1595,267.9961 C279.6565,254.2071 278.5165,240.4201 278.5965,226.6381 C278.6615,215.4051 280.4615,204.1911 280.8395,192.9481 C281.0375,187.0801 279.6305,181.1761 279.2975,175.2671 C278.7485,165.5121 278.1085,155.7371 278.1635,145.9751 C278.3795,107.1701 278.8045,68.3671 279.2665,29.5641 C279.3525,22.3031 279.9675,15.0491 280.3245,8.0581 C284.4535,7.5331 287.7965,7.1071 291.9185,6.5831 C291.9185,9.3291 291.9225,11.9321 291.9185,14.5341 C291.8775,39.0201 291.8035,63.5071 291.8315,87.9931 C291.8365,91.3101 290.9285,94.9561 295.0115,97.2241 C295.9525,97.7461 295.8145,100.5941 295.8165,102.3731 C295.8495,132.5221 295.8105,162.6721 295.8215,192.8211 C295.8265,208.9761 295.8955,225.1321 295.9345,241.2871 C295.9405,243.7641 295.9355,246.2401 295.9355,248.9961" id="Fill-7"></path>
                <path d="M488.4834,34.7188 C488.8514,41.6418 489.5724,48.5708 489.4804,55.4878 C489.4014,61.4318 488.4744,67.3738 487.7014,73.2878 C487.5974,74.0728 486.1944,75.2388 485.3784,75.2518 C484.0654,75.2738 482.3514,74.8358 481.5244,73.9348 C480.6314,72.9598 480.2874,71.2518 480.1744,69.8268 C479.0954,56.0628 478.1374,42.2878 477.0884,28.5208 C476.8784,25.7568 477.5254,23.8548 480.4204,22.7278 C485.8554,20.6118 488.3164,21.9348 488.7074,27.7348 C488.8634,30.0498 488.7324,32.3848 488.7324,34.7098 C488.6484,34.7128 488.5664,34.7158 488.4834,34.7188" id="Fill-8"></path>
            </g>
        </g>
    </g>
</svg>